<svg width="18" height="20" viewBox="0 0 18 20" fill="none" xmlns="http://www.w3.org/2000/svg">
<path d="M15.9878 2H11.9222C11.5137 0.84 10.4438 0 9.17934 0C7.9149 0 6.84499 0.84 6.43648 2H2.37083C1.30092 2 0.425537 2.9 0.425537 4V18C0.425537 19.1 1.30092 20 2.37083 20H15.9878C17.0578 20 17.9331 19.1 17.9331 18V4C17.9331 2.9 17.0578 2 15.9878 2ZM9.17934 2C9.71429 2 10.152 2.45 10.152 3C10.152 3.55 9.71429 4 9.17934 4C8.64438 4 8.20669 3.55 8.20669 3C8.20669 2.45 8.64438 2 9.17934 2ZM9.17934 6C10.7939 6 12.0973 7.34 12.0973 9C12.0973 10.66 10.7939 12 9.17934 12C7.56475 12 6.2614 10.66 6.2614 9C6.2614 7.34 7.56475 6 9.17934 6ZM15.0152 18H3.34347V16.6C3.34347 14.6 7.23405 13.5 9.17934 13.5C11.1246 13.5 15.0152 14.6 15.0152 16.6V18Z" fill="#00C9B8"/>
</svg>
