<svg width="24" height="24" viewBox="0 0 24 24" fill="none" xmlns="http://www.w3.org/2000/svg">
<g clip-path="url(#clip0)">
<path d="M12.1185 2C6.76632 2 2.42249 6.48 2.42249 12C2.42249 17.52 6.76632 22 12.1185 22C17.4708 22 21.8146 17.52 21.8146 12C21.8146 6.48 17.4708 2 12.1185 2ZM12.1185 5C13.7281 5 15.0273 6.34 15.0273 8C15.0273 9.66 13.7281 11 12.1185 11C10.509 11 9.20972 9.66 9.20972 8C9.20972 6.34 10.509 5 12.1185 5ZM12.1185 19.2C9.69452 19.2 7.5517 17.92 6.30091 15.98C6.32999 13.99 10.1793 12.9 12.1185 12.9C14.048 12.9 17.9071 13.99 17.9362 15.98C16.6854 17.92 14.5425 19.2 12.1185 19.2Z" fill="#00C9B8"/>
</g>
<defs>
<clipPath id="clip0">
<rect width="23.2705" height="24" fill="white" transform="translate(0.483276)"/>
</clipPath>
</defs>
</svg>
