<svg width="24" height="24" viewBox="0 0 24 24" fill="none" xmlns="http://www.w3.org/2000/svg">
<g clip-path="url(#clip0)">
<path d="M17.9362 8H16.9666V6C16.9666 3.24 14.7946 1 12.1185 1C9.44242 1 7.27051 3.24 7.27051 6V8H6.3009C5.23434 8 4.36169 8.9 4.36169 10V20C4.36169 21.1 5.23434 22 6.3009 22H17.9362C19.0027 22 19.8754 21.1 19.8754 20V10C19.8754 8.9 19.0027 8 17.9362 8ZM12.1185 17C11.052 17 10.1793 16.1 10.1793 15C10.1793 13.9 11.052 13 12.1185 13C13.1851 13 14.0577 13.9 14.0577 15C14.0577 16.1 13.1851 17 12.1185 17ZM15.1243 8H9.11276V6C9.11276 4.29 10.4605 2.9 12.1185 2.9C13.7766 2.9 15.1243 4.29 15.1243 6V8Z" fill="#00C9B8"/>
</g>
<defs>
<clipPath id="clip0">
<rect width="23.2705" height="24" fill="white" transform="translate(0.483276)"/>
</clipPath>
</defs>
</svg>
